<?xml version="1.0" encoding="UTF-8" standalone="no"?>
<!-- Created with Inkscape (http://www.inkscape.org/) -->
<svg
   xmlns:dc="http://purl.org/dc/elements/1.1/"
   xmlns:cc="http://creativecommons.org/ns#"
   xmlns:rdf="http://www.w3.org/1999/02/22-rdf-syntax-ns#"
   xmlns:svg="http://www.w3.org/2000/svg"
   xmlns="http://www.w3.org/2000/svg"
   xmlns:sodipodi="http://sodipodi.sourceforge.net/DTD/sodipodi-0.dtd"
   xmlns:inkscape="http://www.inkscape.org/namespaces/inkscape"
   id="svg2402"
   sodipodi:version="0.32"
   inkscape:version="0.46"
   width="702.7088"
   height="219.62563"
   xml:space="preserve"
   sodipodi:docname="nodeposition.svg"
   version="1.0"
   inkscape:output_extension="org.inkscape.output.svg.inkscape"><metadata
     id="metadata2407"><rdf:RDF><cc:Work
         rdf:about=""><dc:format>image/svg+xml</dc:format><dc:type
           rdf:resource="http://purl.org/dc/dcmitype/StillImage" /></cc:Work></rdf:RDF></metadata><defs
     id="defs2405"><marker
       inkscape:stockid="Arrow2Mend"
       orient="auto"
       refY="0"
       refX="0"
       id="Arrow2Mend"
       style="overflow:visible"><path
         id="path3413"
         style="font-size:12px;fill-rule:evenodd;stroke-width:0.625;stroke-linejoin:round"
         d="M 8.7185878,4.0337352 L -2.2072895,0.016013256 L 8.7185884,-4.0017078 C 6.97309,-1.6296469 6.9831476,1.6157441 8.7185878,4.0337352 z"
         transform="scale(-0.6,-0.6)" /></marker><marker
       inkscape:stockid="Arrow1Lend"
       orient="auto"
       refY="0"
       refX="0"
       id="Arrow1Lend"
       style="overflow:visible"><path
         id="path3389"
         d="M 0,0 L 5,-5 L -12.5,0 L 5,5 L 0,0 z"
         style="fill-rule:evenodd;stroke:#000000;stroke-width:1pt;marker-start:none"
         transform="matrix(-0.8,0,0,-0.8,-10,0)" /></marker><marker
       inkscape:stockid="DotS"
       orient="auto"
       refY="0"
       refX="0"
       id="DotS"
       style="overflow:visible"><path
         id="path3454"
         d="M -2.5,-1 C -2.5,1.76 -4.74,4 -7.5,4 C -10.26,4 -12.5,1.76 -12.5,-1 C -12.5,-3.76 -10.26,-6 -7.5,-6 C -4.74,-6 -2.5,-3.76 -2.5,-1 z"
         style="fill-rule:evenodd;stroke:#000000;stroke-width:1pt;marker-start:none;marker-end:none"
         transform="matrix(0.2,0,0,0.2,1.48,0.2)" /></marker><marker
       inkscape:stockid="DotM"
       orient="auto"
       refY="0"
       refX="0"
       id="DotM"
       style="overflow:visible"><path
         id="path3451"
         d="M -2.5,-1 C -2.5,1.76 -4.74,4 -7.5,4 C -10.26,4 -12.5,1.76 -12.5,-1 C -12.5,-3.76 -10.26,-6 -7.5,-6 C -4.74,-6 -2.5,-3.76 -2.5,-1 z"
         style="fill-rule:evenodd;stroke:#000000;stroke-width:1pt;marker-start:none;marker-end:none"
         transform="matrix(0.4,0,0,0.4,2.96,0.4)" /></marker><marker
       inkscape:stockid="DotL"
       orient="auto"
       refY="0"
       refX="0"
       id="DotL"
       style="overflow:visible"><path
         id="path3448"
         d="M -2.5,-1 C -2.5,1.76 -4.74,4 -7.5,4 C -10.26,4 -12.5,1.76 -12.5,-1 C -12.5,-3.76 -10.26,-6 -7.5,-6 C -4.74,-6 -2.5,-3.76 -2.5,-1 z"
         style="fill-rule:evenodd;stroke:#000000;stroke-width:1pt;marker-start:none;marker-end:none"
         transform="matrix(0.8,0,0,0.8,5.92,0.8)" /></marker><marker
       inkscape:stockid="Arrow1Lstart"
       orient="auto"
       refY="0"
       refX="0"
       id="Arrow1Lstart"
       style="overflow:visible"><path
         id="path3386"
         d="M 0,0 L 5,-5 L -12.5,0 L 5,5 L 0,0 z"
         style="fill-rule:evenodd;stroke:#000000;stroke-width:1pt;marker-start:none"
         transform="matrix(0.8,0,0,0.8,10,0)" /></marker><inkscape:perspective
       sodipodi:type="inkscape:persp3d"
       inkscape:vp_x="0 : 526.18109 : 1"
       inkscape:vp_y="0 : 1000 : 0"
       inkscape:vp_z="744.09448 : 526.18109 : 1"
       inkscape:persp3d-origin="372.04724 : 350.78739 : 1"
       id="perspective2409" /></defs><sodipodi:namedview
     inkscape:window-height="480"
     inkscape:window-width="640"
     inkscape:pageshadow="2"
     inkscape:pageopacity="0.0"
     guidetolerance="10.0"
     gridtolerance="10.0"
     objecttolerance="10.0"
     borderopacity="1.0"
     bordercolor="#666666"
     pagecolor="#ffffff"
     id="base"
     showgrid="false"
     units="cm"
     inkscape:zoom="1.5735886"
     inkscape:cx="509.58935"
     inkscape:cy="148.87527"
     inkscape:current-layer="g2411" /><g
     id="g2411"
     inkscape:groupmode="layer"
     inkscape:label="nodeposition"
     transform="matrix(1.25,0,0,-1.25,-6.2498195,185.17393)"><text
   id="text2417"
   transform="scale(1,-1)"
   x="407.65302"
   y="-134.86389"><tspan
     id="tspan2419"
     sodipodi:role="line"
     y="-134.86389"
     x="407.65302 415.133 421.24301 427.58301 433.733 439.763 445.87302 451.073 453.84302 457.763 460.53302 466.64301"
     style="font-size:10px;font-variant:normal;font-weight:normal;writing-mode:lr-tb;fill:#000000;fill-opacity:1;fill-rule:nonzero;stroke:none;font-family:DejaVuSans;-inkscape-font-specification:DejaVuSans">NodePosition</tspan></text>

<path
   id="path2421"
   style="fill:#ffffff;fill-opacity:1;stroke:#000000;stroke-width:1.95360005;stroke-linecap:butt;stroke-linejoin:round;stroke-miterlimit:10;stroke-dasharray:none;stroke-opacity:1"
   d="M 325.153,126.798 L 553.153,126.798 L 553.153,23.798 L 325.153,23.798 L 325.153,126.798 z" /><text
   id="text2423"
   transform="scale(1,-1)"
   x="402.15302"
   y="-112.12639"><tspan
     id="tspan2425"
     sodipodi:role="line"
     y="-112.12639"
     x="402.15302 409.633 415.74301 422.08301 428.233 435.09302 437.86301 444.19302 450.31302 454.423 460.33301 467.173 472.37302"
     style="font-size:10px;font-variant:normal;font-weight:normal;writing-mode:lr-tb;fill:#000000;fill-opacity:1;fill-rule:nonzero;stroke:none;font-family:DejaVuSans;-inkscape-font-specification:DejaVuSans">NodeBinaryAss</tspan></text>

<path
   id="path2427"
   style="fill:none;stroke:#000000;stroke-width:2;stroke-linecap:butt;stroke-linejoin:round;stroke-miterlimit:10;stroke-dasharray:none;stroke-opacity:1"
   d="M 399.786,100.22 L 527.786,100.22 L 527.786,36.22 L 399.786,36.22 L 399.786,100.22 z" /><text
   id="text2429"
   transform="scale(1,-1)"
   x="426.28583"
   y="-85.548256"><tspan
     id="tspan2431"
     sodipodi:role="line"
     y="-85.548256"
     x="426.28583 433.76584 439.87582 446.21582 452.36584 459.22583 461.99582 468.32584 474.44583 478.55582 484.46582 491.306 497.64609"
     style="font-size:10px;font-variant:normal;font-weight:normal;writing-mode:lr-tb;fill:#000000;fill-opacity:1;fill-rule:nonzero;stroke:none;font-family:DejaVuSans;-inkscape-font-specification:DejaVuSans">NodeBinaryAdd</tspan></text>

<path
   id="path2433"
   style="fill:none;stroke:#000000;stroke-width:1.95360005;stroke-linecap:butt;stroke-linejoin:round;stroke-miterlimit:10;stroke-dasharray:none;stroke-opacity:1"
   d="M 5.9766556,147.16234 L 281.10134,147.16234 L 281.10134,12.005753 L 5.9766556,12.005753 L 5.9766556,147.16234 z" /><text
   id="text2435"
   transform="scale(1,-1)"
   x="106.53906"
   y="-132.46701"><tspan
     id="tspan2437"
     sodipodi:role="line"
     y="-132.46701"
     x="106.53906 114.01906 120.12906 126.46906 132.61906 139.47906 142.24905 148.57906 154.69907 158.80907 164.71906 171.55905 176.75906"
     style="font-size:10px;font-variant:normal;font-weight:normal;writing-mode:lr-tb;fill:#000000;fill-opacity:1;fill-rule:nonzero;stroke:none;font-family:DejaVuSans;-inkscape-font-specification:DejaVuSans">NodeBinaryAss</tspan></text>

<path
   id="path2439"
   style="fill:none;stroke:#000000;stroke-width:1.95360005;stroke-linecap:butt;stroke-linejoin:round;stroke-miterlimit:10;stroke-dasharray:none;stroke-opacity:1"
   d="M 98.758,115.856 L 270.028,115.856 L 270.028,27.887 L 98.758,27.887 L 98.758,115.856 z" /><text
   id="text2441"
   transform="scale(1,-1)"
   x="146.89062"
   y="-101.1842"><tspan
     id="tspan2443"
     sodipodi:role="line"
     y="-101.1842"
     x="146.89062 154.37062 160.48062 166.82062 172.97063 179.83061 182.60062 188.93062 195.05061 199.16061 205.07062 211.91061 218.25063"
     style="font-size:10px;font-variant:normal;font-weight:normal;writing-mode:lr-tb;fill:#000000;fill-opacity:1;fill-rule:nonzero;stroke:none;font-family:DejaVuSans;-inkscape-font-specification:DejaVuSans">NodeBinaryAdd</tspan></text>

<text
   id="text2445"
   transform="scale(1,-1)"
   x="137.89844"
   y="-76.158417"><tspan
     id="tspan2447"
     y="-76.158417"
     x="137.89844"
     style="font-size:10px;font-variant:normal;font-weight:normal;writing-mode:lr-tb;fill:#000000;fill-opacity:1;fill-rule:nonzero;stroke:none;font-family:DejaVuSans;-inkscape-font-specification:DejaVuSans">a</tspan></text>

<path
   id="path2449"
   style="fill:none;stroke:#000000;stroke-width:2;stroke-linecap:butt;stroke-linejoin:round;stroke-miterlimit:10;stroke-dasharray:none;stroke-opacity:1"
   d="M 106.254,78.893 C 106.254,87.178 112.969,93.893 121.254,93.893 L 159.539,93.893 L 159.539,93.893 C 167.824,93.893 174.539,87.178 174.539,78.893 L 174.539,78.893 L 174.539,78.893 C 174.539,70.608 167.824,63.893 159.539,63.893 L 121.254,63.893 L 121.254,63.893 C 112.969,63.893 106.254,70.608 106.254,78.893 z" /><text
   id="text2451"
   transform="scale(1,-1)"
   x="219.11328"
   y="-75.658417"><tspan
     id="tspan2453"
     y="-75.658417"
     x="219.11328"
     style="font-size:10px;font-variant:normal;font-weight:normal;writing-mode:lr-tb;fill:#000000;fill-opacity:1;fill-rule:nonzero;stroke:none;font-family:DejaVuSans;-inkscape-font-specification:DejaVuSans">b</tspan></text>

<path
   id="path2455"
   style="fill:none;stroke:#000000;stroke-width:2;stroke-linecap:butt;stroke-linejoin:round;stroke-miterlimit:10;stroke-dasharray:none;stroke-opacity:1"
   d="M 186.113,78.893 C 186.113,87.178 192.832,93.893 201.113,93.893 L 242.113,93.893 L 242.113,93.893 C 250.398,93.893 257.113,87.178 257.113,78.893 L 257.113,78.893 L 257.113,78.893 C 257.113,70.608 250.398,63.893 242.113,63.893 L 201.113,63.893 L 201.113,63.893 C 192.832,63.893 186.113,70.608 186.113,78.893 z" /><text
   id="text2457"
   transform="scale(1,-1)"
   x="48.705818"
   y="-49.858959"><tspan
     id="tspan2459"
     y="-49.858959"
     x="48.705818"
     style="font-size:10px;font-variant:normal;font-weight:normal;writing-mode:lr-tb;fill:#000000;fill-opacity:1;fill-rule:nonzero;stroke:none;font-family:DejaVuSans;-inkscape-font-specification:DejaVuSans">c</tspan></text>

<path
   id="path2461"
   style="fill:none;stroke:#000000;stroke-width:2;stroke-linecap:butt;stroke-linejoin:round;stroke-miterlimit:10;stroke-dasharray:none;stroke-opacity:1"
   d="M 15.920661,52.59285 C 15.920661,60.87885 22.635661,67.59285 30.920661,67.59285 L 71.920661,67.59285 L 71.920661,67.59285 C 80.205661,67.59285 86.920661,60.87885 86.920661,52.59285 L 86.920661,52.59285 L 86.920661,52.59285 C 86.920661,44.31185 80.205661,37.59285 71.920661,37.59285 L 30.920661,37.59285 L 30.920661,37.59285 C 22.635661,37.59285 15.920661,44.31185 15.920661,52.59285 z" /><text
   id="text2463"
   transform="scale(1,-1)"
   x="489.17264"
   y="-57.149822"><tspan
     id="tspan2465"
     y="-57.149822"
     x="489.17264"
     style="font-size:10px;font-variant:normal;font-weight:normal;writing-mode:lr-tb;fill:#000000;fill-opacity:1;fill-rule:nonzero;stroke:none;font-family:DejaVuSans;-inkscape-font-specification:DejaVuSans">b</tspan></text>

<path
   id="path2467"
   style="fill:none;stroke:#000000;stroke-width:2;stroke-linecap:butt;stroke-linejoin:round;stroke-miterlimit:10;stroke-dasharray:none;stroke-opacity:1"
   d="M 466.673,60.384 C 466.673,68.669 473.388,75.384 481.673,75.384 L 501.673,75.384 L 501.673,75.384 C 509.954,75.384 516.673,68.669 516.673,60.384 L 516.673,60.384 L 516.673,60.384 C 516.673,52.099 509.954,45.384 501.673,45.384 L 481.673,45.384 L 481.673,45.384 C 473.388,45.384 466.673,52.099 466.673,60.384 z" /><text
   id="text2469"
   transform="scale(1,-1)"
   x="361.77802"
   y="-79.6381"><tspan
     id="tspan2471"
     y="-79.6381"
     x="361.77802"
     style="font-size:10px;font-variant:normal;font-weight:normal;writing-mode:lr-tb;fill:#000000;fill-opacity:1;fill-rule:nonzero;stroke:none;font-family:DejaVuSans;-inkscape-font-specification:DejaVuSans">c</tspan></text>

<path
   id="path2473"
   style="fill:none;stroke:#000000;stroke-width:2;stroke-linecap:butt;stroke-linejoin:round;stroke-miterlimit:10;stroke-dasharray:none;stroke-opacity:1"
   d="M 338.778,82.372 C 338.778,90.658 345.493,97.372 353.778,97.372 L 373.778,97.372 L 373.778,97.372 C 382.063,97.372 388.778,90.658 388.778,82.372 L 388.778,82.372 L 388.778,82.372 C 388.778,74.091 382.063,67.372 373.778,67.372 L 353.778,67.372 L 353.778,67.372 C 345.493,67.372 338.778,74.091 338.778,82.372 z" /><text
   id="text2475"
   transform="scale(1,-1)"
   x="428.98505"
   y="-57.071697"><tspan
     id="tspan2477"
     y="-57.071697"
     x="428.98505"
     style="font-size:10px;font-variant:normal;font-weight:normal;writing-mode:lr-tb;fill:#000000;fill-opacity:1;fill-rule:nonzero;stroke:none;font-family:DejaVuSans;-inkscape-font-specification:DejaVuSans">a</tspan></text>

<path
   id="path2479"
   style="fill:none;stroke:#000000;stroke-width:2;stroke-linecap:butt;stroke-linejoin:round;stroke-miterlimit:10;stroke-dasharray:none;stroke-opacity:1"
   d="M 406.485,59.806 C 406.485,68.087 413.2,74.806 421.485,74.806 L 441.485,74.806 L 441.485,74.806 C 449.77,74.806 456.485,68.087 456.485,59.806 L 456.485,59.806 L 456.485,59.806 C 456.485,51.521 449.77,44.806 441.485,44.806 L 421.485,44.806 L 421.485,44.806 C 413.2,44.806 406.485,51.521 406.485,59.806 z" /><g
   id="g3340"
   transform="translate(71.50215,119.66242)"><rect
   transform="scale(1,-1)"
   y="11.808405"
   x="-56.316143"
   height="20.104923"
   width="72.469307"
   id="rect3328"
   style="fill:#c8c8c8;fill-opacity:1;stroke:#000000;stroke-width:1.46390116;stroke-miterlimit:4;stroke-dasharray:none;stroke-dashoffset:0;stroke-opacity:1" /><text
   y="25.588894"
   x="-52.811348"
   transform="scale(1,-1)"
   id="text3324"><tspan
     style="font-size:10px;font-variant:normal;font-weight:normal;writing-mode:lr-tb;fill:#000000;fill-opacity:1;fill-rule:nonzero;stroke:none;font-family:DejaVuSans;-inkscape-font-specification:DejaVuSans"
     x="-52.811348 -45.331364 -39.221348 -32.881355 -26.731361 -20.701363 -14.591345 -9.3913631 -6.6213441 -2.7013612 0.068658352 6.1786437"
     sodipodi:role="line"
     id="tspan3326"
     y="25.588894">CodePosition</tspan></text>

</g><g
   id="g3345"
   transform="translate(201.95876,67.466504)"><rect
   transform="scale(1,-1)"
   y="11.808405"
   x="-56.316143"
   height="20.104923"
   width="72.469307"
   id="rect3347"
   style="fill:#c8c8c8;fill-opacity:1;stroke:#000000;stroke-width:1.46390116;stroke-miterlimit:4;stroke-dasharray:none;stroke-dashoffset:0;stroke-opacity:1" /><text
   y="25.588894"
   x="-52.811348"
   transform="scale(1,-1)"
   id="text3349"><tspan
     style="font-size:10px;font-variant:normal;font-weight:normal;writing-mode:lr-tb;fill:#000000;fill-opacity:1;fill-rule:nonzero;stroke:none;font-family:DejaVuSans;-inkscape-font-specification:DejaVuSans"
     x="-52.811348 -45.331364 -39.221348 -32.881355 -26.731361 -20.701363 -14.591345 -9.3913631 -6.6213441 -2.7013612 0.068658352 6.1786437"
     y="25.588894"
     sodipodi:role="line"
     id="tspan3351">CodePosition</tspan></text>

</g><g
   id="g3353"
   transform="translate(62.048094,5.0839237)"><rect
   transform="scale(1,-1)"
   y="11.808405"
   x="-56.316143"
   height="20.104923"
   width="72.469307"
   id="rect3355"
   style="fill:#c8c8c8;fill-opacity:1;stroke:#000000;stroke-width:1.46390116;stroke-miterlimit:4;stroke-dasharray:none;stroke-dashoffset:0;stroke-opacity:1" /><text
   y="25.588894"
   x="-52.811348"
   transform="scale(1,-1)"
   id="text3357"><tspan
     style="font-size:10px;font-variant:normal;font-weight:normal;writing-mode:lr-tb;fill:#000000;fill-opacity:1;fill-rule:nonzero;stroke:none;font-family:DejaVuSans;-inkscape-font-specification:DejaVuSans"
     x="-52.811348 -45.331364 -39.221348 -32.881355 -26.731361 -20.701363 -14.591345 -9.3913631 -6.6213441 -2.7013612 0.068658352 6.1786437"
     y="25.588894"
     sodipodi:role="line"
     id="tspan3359">CodePosition</tspan></text>

</g><g
   id="g3361"
   transform="translate(163.62049,5.0839237)"><rect
   transform="scale(1,-1)"
   y="11.808405"
   x="-56.316143"
   height="20.104923"
   width="72.469307"
   id="rect3363"
   style="fill:#c8c8c8;fill-opacity:1;stroke:#000000;stroke-width:1.46390116;stroke-miterlimit:4;stroke-dasharray:none;stroke-dashoffset:0;stroke-opacity:1" /><text
   y="25.588894"
   x="-52.811348"
   transform="scale(1,-1)"
   id="text3365"><tspan
     style="font-size:10px;font-variant:normal;font-weight:normal;writing-mode:lr-tb;fill:#000000;fill-opacity:1;fill-rule:nonzero;stroke:none;font-family:DejaVuSans;-inkscape-font-specification:DejaVuSans"
     x="-52.811348 -45.331364 -39.221348 -32.881355 -26.731361 -20.701363 -14.591345 -9.3913631 -6.6213441 -2.7013612 0.068658352 6.1786437"
     y="25.588894"
     sodipodi:role="line"
     id="tspan3367">CodePosition</tspan></text>

</g><g
   id="g3369"
   transform="translate(265.19289,5.5923158)"><rect
   transform="scale(1,-1)"
   y="11.808405"
   x="-56.316143"
   height="20.104923"
   width="72.469307"
   id="rect3371"
   style="fill:#c8c8c8;fill-opacity:1;stroke:#000000;stroke-width:1.46390116;stroke-miterlimit:4;stroke-dasharray:none;stroke-dashoffset:0;stroke-opacity:1" /><text
   y="25.588894"
   x="-52.811348"
   transform="scale(1,-1)"
   id="text3373"><tspan
     style="font-size:10px;font-variant:normal;font-weight:normal;writing-mode:lr-tb;fill:#000000;fill-opacity:1;fill-rule:nonzero;stroke:none;font-family:DejaVuSans;-inkscape-font-specification:DejaVuSans"
     x="-52.811348 -45.331364 -39.221348 -32.881355 -26.731361 -20.701363 -14.591345 -9.3913631 -6.6213441 -2.7013612 0.068658352 6.1786437"
     y="25.588894"
     sodipodi:role="line"
     id="tspan3375">CodePosition</tspan></text>

</g><path
   style="fill:none;fill-rule:evenodd;stroke:#000000;stroke-width:1.58679497;stroke-linecap:butt;stroke-linejoin:miter;marker-start:url(#DotM);marker-end:url(#Arrow2Mend);stroke-miterlimit:4;stroke-dasharray:none;stroke-opacity:1"
   d="M 121.25148,78.097938 L 121.25148,-4.479516"
   id="path8986" /><path
   style="fill:none;fill-rule:evenodd;stroke:#000000;stroke-width:1.58367884;stroke-linecap:butt;stroke-linejoin:miter;marker-start:url(#DotM);marker-end:url(#Arrow2Mend);stroke-miterlimit:4;stroke-dasharray:none;stroke-opacity:1"
   d="M 242.50299,77.857752 L 242.50299,-4.1055147"
   id="path8988" /><path
   style="fill:none;fill-rule:evenodd;stroke:#000000;stroke-width:1.58560646;stroke-linecap:butt;stroke-linejoin:miter;marker-start:url(#DotM);marker-end:url(#Arrow2Mend);stroke-miterlimit:4;stroke-dasharray:none;stroke-opacity:1"
   d="M 31.961526,51.950484 L 31.961526,-4.2285295"
   id="path11787" /><g
   id="g3475"
   transform="translate(459.23449,23.711422)"><rect
   transform="scale(1,-1)"
   y="11.808405"
   x="-56.316143"
   height="20.104923"
   width="72.469307"
   id="rect3477"
   style="fill:#c8c8c8;fill-opacity:1;stroke:#000000;stroke-width:1.46390116;stroke-miterlimit:4;stroke-dasharray:none;stroke-dashoffset:0;stroke-opacity:1" /><text
   y="25.588894"
   x="-52.811348"
   transform="scale(1,-1)"
   id="text3479"><tspan
     style="font-size:10px;font-variant:normal;font-weight:normal;writing-mode:lr-tb;fill:#000000;fill-opacity:1;fill-rule:nonzero;stroke:none;font-family:DejaVuSans;-inkscape-font-specification:DejaVuSans"
     x="-52.811348 -45.331364 -39.221348 -32.881355 -26.731361 -20.701363 -14.591345 -9.3913631 -6.6213441 -2.7013612 0.068658352 6.1786437"
     y="25.588894"
     sodipodi:role="line"
     id="tspan3481">CodePosition</tspan></text>

</g><rect
   style="fill:none;fill-opacity:1;stroke:#000000;stroke-width:1.95360005;stroke-miterlimit:10;stroke-dasharray:none;stroke-dashoffset:0;stroke-opacity:1"
   id="rect3503"
   width="255.21284"
   height="169.29457"
   x="310.97723"
   y="-147.16234"
   transform="scale(1,-1)" /></g></svg>